<svg xmlns="http://www.w3.org/2000/svg" viewBox="0 0 100 100">
  <defs>
    <linearGradient id="grad1" x1="0%" y1="0%" x2="100%" y2="100%">
      <stop offset="0%" style="stop-color:#0d9488;stop-opacity:1" />
      <stop offset="50%" style="stop-color:#8b5cf6;stop-opacity:1" />
      <stop offset="100%" style="stop-color:#f59e0b;stop-opacity:1" />
    </linearGradient>
    <linearGradient id="grad2" x1="0%" y1="100%" x2="100%" y2="0%">
      <stop offset="0%" style="stop-color:#f472b6;stop-opacity:1" />
      <stop offset="100%" style="stop-color:#06b6d4;stop-opacity:1" />
    </linearGradient>
  </defs>
  <circle cx="50" cy="50" r="48" fill="url(#grad1)"/>
  <circle cx="50" cy="50" r="40" fill="none" stroke="url(#grad2)" stroke-width="2" opacity="0.5"/>
  <!-- Brain-like pattern -->
  <path d="M30 50 Q35 35 50 35 Q65 35 70 50 Q65 65 50 65 Q35 65 30 50" fill="none" stroke="white" stroke-width="2" opacity="0.8"/>
  <path d="M40 45 Q50 40 60 45" fill="none" stroke="white" stroke-width="1.5" opacity="0.6"/>
  <path d="M40 55 Q50 60 60 55" fill="none" stroke="white" stroke-width="1.5" opacity="0.6"/>
  <!-- Circuit nodes -->
  <circle cx="35" cy="50" r="3" fill="white" opacity="0.9"/>
  <circle cx="50" cy="38" r="3" fill="white" opacity="0.9"/>
  <circle cx="65" cy="50" r="3" fill="white" opacity="0.9"/>
  <circle cx="50" cy="62" r="3" fill="white" opacity="0.9"/>
  <circle cx="50" cy="50" r="4" fill="white"/>
  <!-- Connection lines -->
  <line x1="35" y1="50" x2="50" y2="50" stroke="white" stroke-width="1" opacity="0.7"/>
  <line x1="50" y1="50" x2="65" y2="50" stroke="white" stroke-width="1" opacity="0.7"/>
  <line x1="50" y1="38" x2="50" y2="50" stroke="white" stroke-width="1" opacity="0.7"/>
  <line x1="50" y1="50" x2="50" y2="62" stroke="white" stroke-width="1" opacity="0.7"/>
</svg>

